<?xml version="1.0" encoding="UTF-8"?>
<!DOCTYPE svg PUBLIC "-//W3C//DTD SVG 1.1//EN" "http://www.w3.org/Graphics/SVG/1.1/DTD/svg11.dtd">
<svg version="1.1" xmlns="http://www.w3.org/2000/svg" xmlns:xlink="http://www.w3.org/1999/xlink" x="0" y="0" width="400" height="400" viewBox="0, 0, 400, 400">
  <g id="Layer_1">
    <path d="M200.5,40.5 L200.5,360.5" fill-opacity="0" stroke="#115C81" stroke-width="4"/>
    <path d="M315.5,320.5 L85.5,85.5" fill-opacity="0" stroke="#115C81" stroke-width="4"/>
    <path d="M85.5,85.5 L200.5,40.5" fill-opacity="0" stroke="#A83A01" stroke-width="4"/>
    <path d="M315.5,320.5 L200.5,360.5" fill-opacity="0" stroke="#A83A01" stroke-width="4"/>
    <path d="M315.5,315.5 L360.5,200.5" fill-opacity="0" stroke="#A83A01" stroke-width="4"/>
    <path d="M360.5,200.5 L315.5,85.5" fill-opacity="0" stroke="#A83A01" stroke-width="4"/>
    <path d="M315.5,85.5 L200.5,40.5" fill-opacity="0" stroke="#A83A01" stroke-width="4"/>
    <path d="M85.5,315.5 L40.5,200.5" fill-opacity="0" stroke="#115C81" stroke-width="4"/>
    <path d="M200.5,360.5 L40.5,200.5" fill-opacity="0" stroke="#115C81" stroke-width="4"/>
    <path d="M85.5,85.5 L200.5,360.5" fill-opacity="0" stroke="#A83A01" stroke-width="4"/>
    <path d="M315.5,85.5 L315.5,320.5" fill-opacity="0" stroke="#115C81" stroke-width="4"/>
    <g>
      <g>
        <path d="M200.5,60.5 C189.454,60.5 180.5,51.546 180.5,40.5 C180.5,29.454 189.454,20.5 200.5,20.5 C211.546,20.5 220.5,29.454 220.5,40.5 C220.5,51.546 211.546,60.5 200.5,60.5 z" fill="#9AD0EC"/>
        <path d="M200.5,60.5 C189.454,60.5 180.5,51.546 180.5,40.5 C180.5,29.454 189.454,20.5 200.5,20.5 C211.546,20.5 220.5,29.454 220.5,40.5 C220.5,51.546 211.546,60.5 200.5,60.5 z" fill-opacity="0" stroke="#115C81" stroke-width="3"/>
      </g>
      <text transform="matrix(1, 0, 0, 1, 200, 40)">
        <tspan x="-6.024" y="6.5" font-family="Roboto-Bold" font-size="21" fill="#115C81">1</tspan>
      </text>
    </g>
    <g>
      <g>
        <path d="M40.5,220.5 C29.454,220.5 20.5,211.546 20.5,200.5 C20.5,189.454 29.454,180.5 40.5,180.5 C51.546,180.5 60.5,189.454 60.5,200.5 C60.5,211.546 51.546,220.5 40.5,220.5 z" fill="#9AD0EC"/>
        <path d="M40.5,220.5 C29.454,220.5 20.5,211.546 20.5,200.5 C20.5,189.454 29.454,180.5 40.5,180.5 C51.546,180.5 60.5,189.454 60.5,200.5 C60.5,211.546 51.546,220.5 40.5,220.5 z" fill-opacity="0" stroke="#115C81" stroke-width="3"/>
      </g>
      <text transform="matrix(1, 0, 0, 1, 40, 200)">
        <tspan x="-6.024" y="6.5" font-family="Roboto-Bold" font-size="21" fill="#115C81">7</tspan>
      </text>
    </g>
    <g>
      <g>
        <path d="M200.5,380.5 C189.454,380.5 180.5,371.546 180.5,360.5 C180.5,349.454 189.454,340.5 200.5,340.5 C211.546,340.5 220.5,349.454 220.5,360.5 C220.5,371.546 211.546,380.5 200.5,380.5 z" fill="#9AD0EC"/>
        <path d="M200.5,380.5 C189.454,380.5 180.5,371.546 180.5,360.5 C180.5,349.454 189.454,340.5 200.5,340.5 C211.546,340.5 220.5,349.454 220.5,360.5 C220.5,371.546 211.546,380.5 200.5,380.5 z" fill-opacity="0" stroke="#115C81" stroke-width="3"/>
      </g>
      <text transform="matrix(1, 0, 0, 1, 200, 360)">
        <tspan x="-6.024" y="6.5" font-family="Roboto-Bold" font-size="21" fill="#115C81">5</tspan>
      </text>
    </g>
    <g>
      <g>
        <path d="M360.5,220.5 C349.454,220.5 340.5,211.546 340.5,200.5 C340.5,189.454 349.454,180.5 360.5,180.5 C371.546,180.5 380.5,189.454 380.5,200.5 C380.5,211.546 371.546,220.5 360.5,220.5 z" fill="#9AD0EC"/>
        <path d="M360.5,220.5 C349.454,220.5 340.5,211.546 340.5,200.5 C340.5,189.454 349.454,180.5 360.5,180.5 C371.546,180.5 380.5,189.454 380.5,200.5 C380.5,211.546 371.546,220.5 360.5,220.5 z" fill-opacity="0" stroke="#115C81" stroke-width="3"/>
      </g>
      <text transform="matrix(1, 0, 0, 1, 360, 200)">
        <tspan x="-6.024" y="6.5" font-family="Roboto-Bold" font-size="21" fill="#115C81">3</tspan>
      </text>
    </g>
    <g>
      <g>
        <path d="M315.5,105.5 C304.454,105.5 295.5,96.546 295.5,85.5 C295.5,74.454 304.454,65.5 315.5,65.5 C326.546,65.5 335.5,74.454 335.5,85.5 C335.5,96.546 326.546,105.5 315.5,105.5 z" fill="#9AD0EC"/>
        <path d="M315.5,105.5 C304.454,105.5 295.5,96.546 295.5,85.5 C295.5,74.454 304.454,65.5 315.5,65.5 C326.546,65.5 335.5,74.454 335.5,85.5 C335.5,96.546 326.546,105.5 315.5,105.5 z" fill-opacity="0" stroke="#115C81" stroke-width="3"/>
      </g>
      <text transform="matrix(1, 0, 0, 1, 315, 85)">
        <tspan x="-6.024" y="6.5" font-family="Roboto-Bold" font-size="21" fill="#115C81">2</tspan>
      </text>
    </g>
    <g>
      <g>
        <path d="M85.5,105.5 C74.454,105.5 65.5,96.546 65.5,85.5 C65.5,74.454 74.454,65.5 85.5,65.5 C96.546,65.5 105.5,74.454 105.5,85.5 C105.5,96.546 96.546,105.5 85.5,105.5 z" fill="#9AD0EC"/>
        <path d="M85.5,105.5 C74.454,105.5 65.5,96.546 65.5,85.5 C65.5,74.454 74.454,65.5 85.5,65.5 C96.546,65.5 105.5,74.454 105.5,85.5 C105.5,96.546 96.546,105.5 85.5,105.5 z" fill-opacity="0" stroke="#115C81" stroke-width="3"/>
      </g>
      <text transform="matrix(1, 0, 0, 1, 85, 85)">
        <tspan x="-6.024" y="6.5" font-family="Roboto-Bold" font-size="21" fill="#115C81">8</tspan>
      </text>
    </g>
    <g>
      <g>
        <path d="M315.5,335.5 C304.454,335.5 295.5,326.546 295.5,315.5 C295.5,304.454 304.454,295.5 315.5,295.5 C326.546,295.5 335.5,304.454 335.5,315.5 C335.5,326.546 326.546,335.5 315.5,335.5 z" fill="#9AD0EC"/>
        <path d="M315.5,335.5 C304.454,335.5 295.5,326.546 295.5,315.5 C295.5,304.454 304.454,295.5 315.5,295.5 C326.546,295.5 335.5,304.454 335.5,315.5 C335.5,326.546 326.546,335.5 315.5,335.5 z" fill-opacity="0" stroke="#115C81" stroke-width="3"/>
      </g>
      <text transform="matrix(1, 0, 0, 1, 315, 315)">
        <tspan x="-6.024" y="6.5" font-family="Roboto-Bold" font-size="21" fill="#115C81">4</tspan>
      </text>
    </g>
    <g>
      <g>
        <path d="M85.5,335.5 C74.454,335.5 65.5,326.546 65.5,315.5 C65.5,304.454 74.454,295.5 85.5,295.5 C96.546,295.5 105.5,304.454 105.5,315.5 C105.5,326.546 96.546,335.5 85.5,335.5 z" fill="#9AD0EC"/>
        <path d="M85.5,335.5 C74.454,335.5 65.5,326.546 65.5,315.5 C65.5,304.454 74.454,295.5 85.5,295.5 C96.546,295.5 105.5,304.454 105.5,315.5 C105.5,326.546 96.546,335.5 85.5,335.5 z" fill-opacity="0" stroke="#115C81" stroke-width="3"/>
      </g>
      <text transform="matrix(1, 0, 0, 1, 85, 315)">
        <tspan x="-6.024" y="6.5" font-family="Roboto-Bold" font-size="21" fill="#115C81">6</tspan>
      </text>
    </g>
  </g>
</svg>
